<svg width="15" height="21" viewBox="0 0 15 21" fill="none" xmlns="http://www.w3.org/2000/svg">
    <g clip-path="url(#clip0_601_785)">
        <path d="M0.75 3.5C0.75 2.57174 1.11875 1.6815 1.77513 1.02513C2.4315 0.368749 3.32174 0 4.25 0H7.75V7H4.25C3.32174 7 2.4315 6.63125 1.77513 5.97487C1.11875 5.3185 0.75 4.42826 0.75 3.5Z"
              fill="#212121"/>
        <path d="M7.75 0H11.25C11.7096 -6.84897e-09 12.1648 0.0905301 12.5894 0.266422C13.014 0.442313 13.3999 0.700121 13.7249 1.02513C14.0499 1.35013 14.3077 1.73597 14.4836 2.16061C14.6595 2.58525 14.75 3.04037 14.75 3.5C14.75 3.95963 14.6595 4.41475 14.4836 4.83939C14.3077 5.26403 14.0499 5.64987 13.7249 5.97487C13.3999 6.29988 13.014 6.55769 12.5894 6.73358C12.1648 6.90947 11.7096 7 11.25 7H7.75V0Z"
              fill="#212121"/>
        <path d="M7.75 10.5C7.75 10.0404 7.84053 9.58525 8.01642 9.16061C8.19231 8.73597 8.45012 8.35013 8.77513 8.02513C9.10013 7.70012 9.48597 7.44231 9.91061 7.26642C10.3352 7.09053 10.7904 7 11.25 7C11.7096 7 12.1648 7.09053 12.5894 7.26642C13.014 7.44231 13.3999 7.70012 13.7249 8.02513C14.0499 8.35013 14.3077 8.73597 14.4836 9.16061C14.6595 9.58525 14.75 10.0404 14.75 10.5C14.75 10.9596 14.6595 11.4148 14.4836 11.8394C14.3077 12.264 14.0499 12.6499 13.7249 12.9749C13.3999 13.2999 13.014 13.5577 12.5894 13.7336C12.1648 13.9095 11.7096 14 11.25 14C10.7904 14 10.3352 13.9095 9.91061 13.7336C9.48597 13.5577 9.10013 13.2999 8.77513 12.9749C8.45012 12.6499 8.19231 12.264 8.01642 11.8394C7.84053 11.4148 7.75 10.9596 7.75 10.5Z"
              fill="#212121"/>
        <path d="M0.75 17.5C0.75 16.5717 1.11875 15.6815 1.77513 15.0251C2.4315 14.3687 3.32174 14 4.25 14H7.75V17.5C7.75 18.4283 7.38125 19.3185 6.72487 19.9749C6.0685 20.6313 5.17826 21 4.25 21C3.32174 21 2.4315 20.6313 1.77513 19.9749C1.11875 19.3185 0.75 18.4283 0.75 17.5Z"
              fill="#212121"/>
        <path d="M0.75 10.5C0.75 9.57174 1.11875 8.6815 1.77513 8.02513C2.4315 7.36875 3.32174 7 4.25 7H7.75V14H4.25C3.32174 14 2.4315 13.6313 1.77513 12.9749C1.11875 12.3185 0.75 11.4283 0.75 10.5Z"
              fill="#212121"/>
    </g>
    <defs>
        <clipPath id="clip0_601_785">
            <rect width="15" height="21" fill="white"/>
        </clipPath>
    </defs>
</svg>
