<svg width="20" height="23" viewBox="0 0 20 23" fill="none" xmlns="http://www.w3.org/2000/svg">
    <g clip-path="url(#clip0_601_796)">
        <path d="M7.25 19.0136C2.25 20.5136 2.25 16.5136 0.25 16.0136L7.25 19.0136ZM14.25 22.0136V18.1436C14.2875 17.6668 14.2231 17.1874 14.061 16.7374C13.8989 16.2874 13.6429 15.877 13.31 15.5336C16.45 15.1836 19.75 13.9936 19.75 8.53361C19.7497 7.13744 19.2127 5.79481 18.25 4.78361C18.7059 3.56212 18.6736 2.21196 18.16 1.01361C18.16 1.01361 16.98 0.663609 14.25 2.49361C11.958 1.87243 9.54199 1.87243 7.25 2.49361C4.52 0.663609 3.34 1.01361 3.34 1.01361C2.82638 2.21196 2.79414 3.56212 3.25 4.78361C2.28013 5.80231 1.74252 7.15707 1.75 8.56361C1.75 13.9836 5.05 15.1736 8.19 15.5636C7.861 15.9036 7.60726 16.309 7.44531 16.7535C7.28335 17.198 7.21681 17.6717 7.25 18.1436V22.0136"
              fill="#4da6ff"/>
    </g>
    <defs>
        <clipPath id="clip0_601_796">
            <rect width="20" height="23" fill="#4da6ff"/>
        </clipPath>
    </defs>
</svg>
