<svg width="44" height="48" viewBox="0 0 44 48" fill="none" xmlns="http://www.w3.org/2000/svg">
    <g clip-path="url(#clip0_601_804)">
        <path d="M0 0H10V48H0V0Z" fill="#4da6ff"/>
        <path d="M12.6809 25.5L21.181 20L36.1618 42.7355L26.681 48L12.6809 25.5Z" fill="#4da6ff"/>
        <mask id="mask0_601_804" style="mask-type:alpha" maskUnits="userSpaceOnUse" x="11" y="-8" width="38"
              height="57">
            <path d="M12.6809 25.5L11.6809 18L20.6809 17.5L31.6809 1.00001L48.1809 -8L36.1617 42.2356L26.8568 48.0373L12.6809 25.5Z"
                  fill="#C4C4C4"/>
        </mask>
        <g mask="url(#mask0_601_804)">
            <path d="M43.6809 3.05176e-05C43.6809 4.07101 42.8791 8.10212 41.3212 11.8632C39.7633 15.6243 37.4799 19.0417 34.6013 21.9203C31.7226 24.799 28.3052 27.0824 24.5441 28.6403C20.783 30.1982 16.7519 31 12.6809 31V21.7C15.5306 21.7 18.3524 21.1387 20.9852 20.0482C23.6179 18.9577 26.0101 17.3593 28.0252 15.3442C30.0402 13.3292 31.6386 10.937 32.7291 8.30426C33.8197 5.67149 34.3809 2.84971 34.3809 3.05176e-05H43.6809Z"
                  fill="#4da6ff"/>
        </g>
        <mask id="mask1_601_804" style="mask-type:alpha" maskUnits="userSpaceOnUse" x="12" y="0" width="32" height="31">
            <path d="M43.6809 0C43.6809 4.07098 42.8791 8.10209 41.3212 11.8632C39.7633 15.6243 37.4799 19.0417 34.6013 21.9203C31.7226 24.7989 28.3052 27.0824 24.5441 28.6403C20.783 30.1982 16.7519 31 12.6809 31V0H43.6809Z"
                  fill="#C4C4C4"/>
        </mask>
        <g mask="url(#mask1_601_804)">
            <path d="M12.6809 0H43.6809V10H12.6809V0Z" fill="#4da6ff"/>
        </g>
    </g>
    <defs>
        <clipPath id="clip0_601_804">
            <rect width="44" height="48" fill="white"/>
        </clipPath>
    </defs>
</svg>
