<svg width="23" height="23" viewBox="0 0 23 23" fill="none" xmlns="http://www.w3.org/2000/svg">
    <path d="M3.83332 3.8335H19.1667C20.2208 3.8335 21.0833 4.696 21.0833 5.75016V17.2502C21.0833 18.3043 20.2208 19.1668 19.1667 19.1668H3.83332C2.77916 19.1668 1.91666 18.3043 1.91666 17.2502V5.75016C1.91666 4.696 2.77916 3.8335 3.83332 3.8335Z"
          fill="#4DA6FF"/>
    <mask id="mask0_601_828" style="mask-type:alpha" maskUnits="userSpaceOnUse" x="1" y="3" width="21" height="17">
        <path d="M3.83332 3.8335H19.1667C20.2208 3.8335 21.0833 4.696 21.0833 5.75016V17.2502C21.0833 18.3043 20.2208 19.1668 19.1667 19.1668H3.83332C2.77916 19.1668 1.91666 18.3043 1.91666 17.2502V5.75016C1.91666 4.696 2.77916 3.8335 3.83332 3.8335Z"
              fill="#FFE240"/>
    </mask>
    <g mask="url(#mask0_601_828)">
        <path d="M22.0417 3.8335L12.1727 12.8053C11.7913 13.1521 11.2088 13.1521 10.8273 12.8053L0.958344 3.8335"
              fill="white"/>
    </g>
</svg>
