<svg width="21" height="23" viewBox="0 0 21 23" fill="none" xmlns="http://www.w3.org/2000/svg">
    <g clip-path="url(#clip0_601_845)">
        <path d="M10.75 7.5C15.7206 7.5 19.75 6.15685 19.75 4.5C19.75 2.84315 15.7206 1.5 10.75 1.5C5.77944 1.5 1.75 2.84315 1.75 4.5C1.75 6.15685 5.77944 7.5 10.75 7.5Z"
              fill="white"/>
        <path d="M19.75 11.5C19.75 13.16 15.75 14.5 10.75 14.5C5.75 14.5 1.75 13.16 1.75 11.5" fill="white"/>
        <path d="M1.75 4.5V18.5C1.75 20.16 5.75 21.5 10.75 21.5C15.75 21.5 19.75 20.16 19.75 18.5V4.5" fill="white"/>
        <path d="M1.75 4.5C1.75 6.15685 5.77944 7.5 10.75 7.5C15.7206 7.5 19.75 6.15685 19.75 4.5M1.75 4.5C1.75 2.84315 5.77944 1.5 10.75 1.5C15.7206 1.5 19.75 2.84315 19.75 4.5M1.75 4.5V18.5C1.75 20.16 5.75 21.5 10.75 21.5C15.75 21.5 19.75 20.16 19.75 18.5V4.5M1.75 11.5C1.75 13.16 5.75 14.5 10.75 14.5C15.75 14.5 19.75 13.16 19.75 11.5"
              stroke="#4DA6FF" stroke-width="2" stroke-linecap="round" stroke-linejoin="round"/>
    </g>
    <defs>
        <clipPath id="clip0_601_845">
            <rect width="21" height="23" fill="white"/>
        </clipPath>
    </defs>
</svg>
