<svg id="visual" viewBox="0 0 3840 2160" width="3840" height="2160" xmlns="http://www.w3.org/2000/svg" version="1.1">
    <path d="M0 1804L71.2 1793.7C142.3 1783.3 284.7 1762.7 426.8 1755.3C569 1748 711 1754 853.2 1763.8C995.3 1773.7 1137.7 1787.3 1280 1792C1422.3 1796.7 1564.7 1792.3 1706.8 1776.8C1849 1761.3 1991 1734.7 2133.2 1712.7C2275.3 1690.7 2417.7 1673.3 2560 1670.8C2702.3 1668.3 2844.7 1680.7 2986.8 1694.3C3129 1708 3271 1723 3413.2 1721.7C3555.3 1720.3 3697.7 1702.7 3768.8 1693.8L3840 1685L3840 2161L3768.8 2161C3697.7 2161 3555.3 2161 3413.2 2161C3271 2161 3129 2161 2986.8 2161C2844.7 2161 2702.3 2161 2560 2161C2417.7 2161 2275.3 2161 2133.2 2161C1991 2161 1849 2161 1706.8 2161C1564.7 2161 1422.3 2161 1280 2161C1137.7 2161 995.3 2161 853.2 2161C711 2161 569 2161 426.8 2161C284.7 2161 142.3 2161 71.2 2161L0 2161Z"
          fill="#787878"></path>
    <path d="M0 1792L71.2 1789.8C142.3 1787.7 284.7 1783.3 426.8 1802.8C569 1822.3 711 1865.7 853.2 1871.5C995.3 1877.3 1137.7 1845.7 1280 1844C1422.3 1842.3 1564.7 1870.7 1706.8 1872.5C1849 1874.3 1991 1849.7 2133.2 1842.3C2275.3 1835 2417.7 1845 2560 1837.2C2702.3 1829.3 2844.7 1803.7 2986.8 1790.5C3129 1777.3 3271 1776.7 3413.2 1797.8C3555.3 1819 3697.7 1862 3768.8 1883.5L3840 1905L3840 2161L3768.8 2161C3697.7 2161 3555.3 2161 3413.2 2161C3271 2161 3129 2161 2986.8 2161C2844.7 2161 2702.3 2161 2560 2161C2417.7 2161 2275.3 2161 2133.2 2161C1991 2161 1849 2161 1706.8 2161C1564.7 2161 1422.3 2161 1280 2161C1137.7 2161 995.3 2161 853.2 2161C711 2161 569 2161 426.8 2161C284.7 2161 142.3 2161 71.2 2161L0 2161Z"
          fill="#505050"></path>
    <path d="M0 1932L71.2 1944.8C142.3 1957.7 284.7 1983.3 426.8 1996C569 2008.7 711 2008.3 853.2 1995C995.3 1981.7 1137.7 1955.3 1280 1951.7C1422.3 1948 1564.7 1967 1706.8 1970.5C1849 1974 1991 1962 2133.2 1966.3C2275.3 1970.7 2417.7 1991.3 2560 1990C2702.3 1988.7 2844.7 1965.3 2986.8 1957.5C3129 1949.7 3271 1957.3 3413.2 1962.7C3555.3 1968 3697.7 1971 3768.8 1972.5L3840 1974L3840 2161L3768.8 2161C3697.7 2161 3555.3 2161 3413.2 2161C3271 2161 3129 2161 2986.8 2161C2844.7 2161 2702.3 2161 2560 2161C2417.7 2161 2275.3 2161 2133.2 2161C1991 2161 1849 2161 1706.8 2161C1564.7 2161 1422.3 2161 1280 2161C1137.7 2161 995.3 2161 853.2 2161C711 2161 569 2161 426.8 2161C284.7 2161 142.3 2161 71.2 2161L0 2161Z"
          fill="#2b2b2b"></path>
</svg>
