<svg id="visual" viewBox="0 0 3840 2160" width="3840" height="2160" xmlns="http://www.w3.org/2000/svg" version="1.1">
    <path d="M0 1679L128 1687.2C256 1695.3 512 1711.7 768 1763.7C1024 1815.7 1280 1903.3 1536 1942.2C1792 1981 2048 1971 2304 1935.5C2560 1900 2816 1839 3072 1844.2C3328 1849.3 3584 1920.7 3712 1956.3L3840 1992L3840 2161L3712 2161C3584 2161 3328 2161 3072 2161C2816 2161 2560 2161 2304 2161C2048 2161 1792 2161 1536 2161C1280 2161 1024 2161 768 2161C512 2161 256 2161 128 2161L0 2161Z"
          fill="#787878"></path>
    <path d="M0 1980L128 1975.7C256 1971.3 512 1962.7 768 1961.3C1024 1960 1280 1966 1536 1972.2C1792 1978.3 2048 1984.7 2304 1984.2C2560 1983.7 2816 1976.3 3072 1965.5C3328 1954.7 3584 1940.3 3712 1933.2L3840 1926L3840 2161L3712 2161C3584 2161 3328 2161 3072 2161C2816 2161 2560 2161 2304 2161C2048 2161 1792 2161 1536 2161C1280 2161 1024 2161 768 2161C512 2161 256 2161 128 2161L0 2161Z"
          fill="#2b2b2b"></path>
</svg>
