<svg width="3840" height="2160" viewBox="0 0 3840 2160" fill="none" xmlns="http://www.w3.org/2000/svg">
    <g clip-path="url(#clip0_606_13)">
        <path d="M0 1714L71.2 1704.8C142.3 1695.7 284.7 1677.3 426.8 1685.5C569 1693.7 711 1728.3 853.2 1745.2C995.3 1762 1137.7 1761 1280 1754.7C1422.3 1748.3 1564.7 1736.7 1706.8 1740C1849 1743.3 1991 1761.7 2133.2 1762.8C2275.3 1764 2417.7 1748 2560 1731.7C2702.3 1715.3 2844.7 1698.7 2986.8 1682.5C3129 1666.3 3271 1650.7 3413.2 1666C3555.3 1681.3 3697.7 1727.7 3768.8 1750.8L3840 1774V2161H3768.8C3697.7 2161 3555.3 2161 3413.2 2161C3271 2161 3129 2161 2986.8 2161C2844.7 2161 2702.3 2161 2560 2161C2417.7 2161 2275.3 2161 2133.2 2161C1991 2161 1849 2161 1706.8 2161C1564.7 2161 1422.3 2161 1280 2161C1137.7 2161 995.3 2161 853.2 2161C711 2161 569 2161 426.8 2161C284.7 2161 142.3 2161 71.2 2161H0V1714Z"
              fill="#E6F0FF"/>
        <path d="M0 1928L71.2 1916.2C142.3 1904.3 284.7 1880.7 426.8 1875.3C569 1870 711 1883 853.2 1877C995.3 1871 1137.7 1846 1280 1833.3C1422.3 1820.7 1564.7 1820.3 1706.8 1814.5C1849 1808.7 1991 1797.3 2133.2 1810.2C2275.3 1823 2417.7 1860 2560 1884.2C2702.3 1908.3 2844.7 1919.7 2986.8 1913C3129 1906.3 3271 1881.7 3413.2 1869.8C3555.3 1858 3697.7 1859 3768.8 1859.5L3840 1860V2161H3768.8C3697.7 2161 3555.3 2161 3413.2 2161C3271 2161 3129 2161 2986.8 2161C2844.7 2161 2702.3 2161 2560 2161C2417.7 2161 2275.3 2161 2133.2 2161C1991 2161 1849 2161 1706.8 2161C1564.7 2161 1422.3 2161 1280 2161C1137.7 2161 995.3 2161 853.2 2161C711 2161 569 2161 426.8 2161C284.7 2161 142.3 2161 71.2 2161H0V1928Z"
              fill="#80B3FF"/>
        <path d="M0 1949L71.2 1966.5C142.3 1984 284.7 2019 426.8 2024C569 2029 711 2004 853.2 1994.3C995.3 1984.7 1137.7 1990.3 1280 1993.2C1422.3 1996 1564.7 1996 1706.8 1987.2C1849 1978.3 1991 1960.7 2133.2 1969.7C2275.3 1978.7 2417.7 2014.3 2560 2021C2702.3 2027.7 2844.7 2005.3 2986.8 2000.3C3129 1995.3 3271 2007.7 3413.2 2019.8C3555.3 2032 3697.7 2044 3768.8 2050L3840 2056V2161H3768.8C3697.7 2161 3555.3 2161 3413.2 2161C3271 2161 3129 2161 2986.8 2161C2844.7 2161 2702.3 2161 2560 2161C2417.7 2161 2275.3 2161 2133.2 2161C1991 2161 1849 2161 1706.8 2161C1564.7 2161 1422.3 2161 1280 2161C1137.7 2161 995.3 2161 853.2 2161C711 2161 569 2161 426.8 2161C284.7 2161 142.3 2161 71.2 2161H0V1949Z"
              fill="#4DA6FF"/>
    </g>
    <defs>
        <clipPath id="clip0_606_13">
            <rect width="3840" height="2160" fill="white"/>
        </clipPath>
    </defs>
</svg>
