<svg id="visual" viewBox="0 0 600 900" width="600" height="900" xmlns="http://www.w3.org/2000/svg" version="1.1">
    <g stroke-width="1" stroke-linejoin="bevel">
        <path d="M284 501L316 661L358 549Z" fill="#212121" stroke="#212121"></path>
        <path d="M284 501L181 593L316 661Z" fill="#2b2b2b" stroke="#2b2b2b"></path>
        <path d="M316 661L460 584L358 549Z" fill="#272727" stroke="#272727"></path>
        <path d="M368 293L244 360L284 501Z" fill="#282828" stroke="#282828"></path>
        <path d="M181 593L278 772L316 661Z" fill="#2a2a2a" stroke="#2a2a2a"></path>
        <path d="M316 661L545 715L460 584Z" fill="#272727" stroke="#272727"></path>
        <path d="M368 293L284 501L358 549Z" fill="#242424" stroke="#242424"></path>
        <path d="M284 501L244 360L181 593Z" fill="#252525" stroke="#252525"></path>
        <path d="M0 541L121 782L181 593Z" fill="#272727" stroke="#272727"></path>
        <path d="M181 593L121 782L278 772Z" fill="#222222" stroke="#222222"></path>
        <path d="M0 454L0 541L181 593Z" fill="#222222" stroke="#222222"></path>
        <path d="M278 772L545 715L316 661Z" fill="#2b2b2b" stroke="#2b2b2b"></path>
        <path d="M476 324L368 293L358 549Z" fill="#232323" stroke="#232323"></path>
        <path d="M476 324L358 549L460 584Z" fill="#2b2b2b" stroke="#2b2b2b"></path>
        <path d="M244 360L0 454L181 593Z" fill="#2a2a2a" stroke="#2a2a2a"></path>
        <path d="M114 306L0 454L244 360Z" fill="#2a2a2a" stroke="#2a2a2a"></path>
        <path d="M545 715L600 621L460 584Z" fill="#252525" stroke="#252525"></path>
        <path d="M215 900L338 900L278 772Z" fill="#252525" stroke="#252525"></path>
        <path d="M278 772L338 900L545 715Z" fill="#262626" stroke="#262626"></path>
        <path d="M121 782L215 900L278 772Z" fill="#212121" stroke="#212121"></path>
        <path d="M600 422L476 324L460 584Z" fill="#222222" stroke="#222222"></path>
        <path d="M291 130L114 306L244 360Z" fill="#282828" stroke="#282828"></path>
        <path d="M600 621L600 422L460 584Z" fill="#292929" stroke="#292929"></path>
        <path d="M0 541L0 818L121 782Z" fill="#282828" stroke="#282828"></path>
        <path d="M121 782L0 900L215 900Z" fill="#272727" stroke="#272727"></path>
        <path d="M600 422L600 397L476 324Z" fill="#282828" stroke="#282828"></path>
        <path d="M545 715L600 797L600 621Z" fill="#2a2a2a" stroke="#2a2a2a"></path>
        <path d="M529 900L600 797L545 715Z" fill="#292929" stroke="#292929"></path>
        <path d="M338 900L529 900L545 715Z" fill="#262626" stroke="#262626"></path>
        <path d="M0 818L0 900L121 782Z" fill="#212121" stroke="#212121"></path>
        <path d="M529 900L600 900L600 797Z" fill="#242424" stroke="#242424"></path>
        <path d="M476 324L413 154L368 293Z" fill="#272727" stroke="#272727"></path>
        <path d="M368 293L291 130L244 360Z" fill="#2a2a2a" stroke="#2a2a2a"></path>
        <path d="M600 162L413 154L476 324Z" fill="#2b2b2b" stroke="#2b2b2b"></path>
        <path d="M0 151L0 233L86 81Z" fill="#292929" stroke="#292929"></path>
        <path d="M114 306L0 233L0 454Z" fill="#2a2a2a" stroke="#2a2a2a"></path>
        <path d="M413 154L291 130L368 293Z" fill="#232323" stroke="#232323"></path>
        <path d="M86 81L0 233L114 306Z" fill="#222222" stroke="#222222"></path>
        <path d="M600 397L600 162L476 324Z" fill="#222222" stroke="#222222"></path>
        <path d="M413 154L274 0L291 130Z" fill="#252525" stroke="#252525"></path>
        <path d="M120 0L86 81L291 130Z" fill="#272727" stroke="#272727"></path>
        <path d="M291 130L86 81L114 306Z" fill="#222222" stroke="#222222"></path>
        <path d="M546 0L274 0L413 154Z" fill="#232323" stroke="#232323"></path>
        <path d="M274 0L120 0L291 130Z" fill="#262626" stroke="#262626"></path>
        <path d="M86 81L0 0L0 151Z" fill="#2a2a2a" stroke="#2a2a2a"></path>
        <path d="M600 162L546 0L413 154Z" fill="#252525" stroke="#252525"></path>
        <path d="M120 0L0 0L86 81Z" fill="#222222" stroke="#222222"></path>
        <path d="M600 162L600 0L546 0Z" fill="#2b2b2b" stroke="#2b2b2b"></path>
    </g>
</svg>
