<svg width="21" height="19" viewBox="0 0 21 19" fill="none" xmlns="http://www.w3.org/2000/svg">
    <path d="M14.75 6C16.3413 6 17.8674 6.63214 18.9926 7.75736C20.1179 8.88258 20.75 10.4087 20.75 12V19H16.75V12C16.75 11.4696 16.5393 10.9609 16.1642 10.5858C15.7891 10.2107 15.2804 10 14.75 10C14.2196 10 13.7109 10.2107 13.3358 10.5858C12.9607 10.9609 12.75 11.4696 12.75 12V19H8.75V12C8.75 10.4087 9.38214 8.88258 10.5074 7.75736C11.6326 6.63214 13.1587 6 14.75 6Z"
          fill="white"/>
    <path d="M4.75 7H0.75V19H4.75V7Z" fill="white"/>
    <path d="M2.75 4C3.85457 4 4.75 3.10457 4.75 2C4.75 0.89543 3.85457 0 2.75 0C1.64543 0 0.75 0.89543 0.75 2C0.75 3.10457 1.64543 4 2.75 4Z"
          fill="white"/>
</svg>
