<svg width="19" height="23" viewBox="0 0 19 23" fill="none" xmlns="http://www.w3.org/2000/svg">
    <path fill-rule="evenodd" clip-rule="evenodd"
          d="M9.5 22.0418C9.5 22.0418 18.125 16.2918 18.125 9.5835C18.125 7.296 17.2163 5.1022 15.5988 3.4847C13.9813 1.8672 11.7875 0.958496 9.5 0.958496C7.21251 0.958496 5.0187 1.8672 3.4012 3.4847C1.7837 5.1022 0.875 7.296 0.875 9.5835C0.875 16.2918 9.5 22.0418 9.5 22.0418ZM12.375 9.5835C12.375 11.1713 11.0878 12.4585 9.5 12.4585C7.91218 12.4585 6.625 11.1713 6.625 9.5835C6.625 7.99568 7.91218 6.7085 9.5 6.7085C11.0878 6.7085 12.375 7.99568 12.375 9.5835Z"
          fill="#FFE240"/>
</svg>
