<svg width="21" height="23" viewBox="0 0 21 23" fill="none" xmlns="http://www.w3.org/2000/svg">
    <path d="M7.75 19.0136C2.75 20.5136 2.75 16.5136 0.75 16.0136L7.75 19.0136ZM14.75 22.0136V18.1436C14.7875 17.6668 14.7231 17.1874 14.561 16.7374C14.3989 16.2874 14.1429 15.877 13.81 15.5336C16.95 15.1836 20.25 13.9936 20.25 8.53361C20.2497 7.13744 19.7127 5.79481 18.75 4.78361C19.2059 3.56212 19.1736 2.21196 18.66 1.01361C18.66 1.01361 17.48 0.66361 14.75 2.49361C12.458 1.87243 10.042 1.87243 7.75 2.49361C5.02 0.66361 3.84 1.01361 3.84 1.01361C3.32638 2.21196 3.29414 3.56212 3.75 4.78361C2.78013 5.80231 2.24252 7.15707 2.25 8.56361C2.25 13.9836 5.55 15.1736 8.69 15.5636C8.361 15.9036 8.10726 16.309 7.94531 16.7535C7.78335 17.198 7.71681 17.6717 7.75 18.1436V22.0136"
          fill="#FFE240"/>
</svg>
