<svg width="25" height="24" viewBox="0 0 25 24" fill="none" xmlns="http://www.w3.org/2000/svg">
    <path d="M19.7497 8.47131C19.51 8.38943 19.2686 8.31318 19.0255 8.24256C19.0658 8.07849 19.103 7.91349 19.137 7.74756C19.6855 5.08037 19.3269 2.93162 18.103 2.22427C16.9311 1.54552 15.0092 2.25287 13.0705 3.94412C12.8798 4.11099 12.6931 4.28287 12.5103 4.45974C12.3884 4.34224 12.2634 4.22724 12.1353 4.11474C10.1033 2.3063 8.06656 1.54458 6.84406 2.25427C5.67219 2.93443 5.32391 4.95427 5.8175 7.48224C5.86688 7.73224 5.92234 7.98115 5.98391 8.22896C5.70377 8.30838 5.42599 8.39592 5.15094 8.49146C2.77156 9.32349 1.25 10.628 1.25 11.9808C1.25 13.3787 2.88312 14.7802 5.36422 15.6301C5.56547 15.6985 5.76859 15.7621 5.97359 15.8208C5.90703 16.0862 5.84812 16.3544 5.79688 16.6257C5.32812 19.1101 5.69375 21.0821 6.86328 21.758C8.07125 22.456 10.0977 21.7388 12.073 20.0091C12.2292 19.8723 12.3855 19.7277 12.5417 19.5755C12.7392 19.7665 12.9423 19.9518 13.1511 20.1315C15.0636 21.7805 16.9522 22.4466 18.1198 21.7688C19.3269 21.0685 19.7192 18.9498 19.2097 16.3721C19.1706 16.1752 19.1256 15.9743 19.0747 15.7693C19.2172 15.7271 19.3567 15.6835 19.4933 15.6385C22.0714 14.7821 23.7509 13.3974 23.7509 11.9822C23.75 10.6229 22.1797 9.3099 19.7497 8.47131ZM13.7028 4.67068C15.3636 3.22177 16.9161 2.6499 17.6239 3.05865C18.3772 3.49412 18.6702 5.25006 18.1967 7.55303C18.1655 7.70303 18.1317 7.85256 18.0955 8.00162C17.1044 7.77618 16.0993 7.61708 15.087 7.52537C14.5074 6.69047 13.8721 5.89569 13.1853 5.14646C13.3534 4.98334 13.5256 4.82474 13.7019 4.67068H13.7028ZM7.89359 13.1368C8.09703 13.5305 8.30969 13.9194 8.53156 14.3035C8.7575 14.6954 8.99297 15.0815 9.23797 15.4618C8.54144 15.3861 7.84927 15.2745 7.16422 15.1276C7.36297 14.4844 7.60766 13.8165 7.89359 13.1368ZM7.89359 10.8713C7.61234 10.2062 7.37422 9.55178 7.17875 8.9199C7.82094 8.77599 8.50531 8.65834 9.21875 8.56928C8.97969 8.9424 8.74969 9.32099 8.52875 9.70506C8.30781 10.0891 8.09562 10.4779 7.89219 10.8713H7.89359ZM8.40453 12.0043C8.70078 11.3865 9.01984 10.7805 9.36172 10.1865C9.70328 9.59271 10.0669 9.01256 10.4525 8.44599C11.1219 8.39537 11.8081 8.36865 12.5014 8.36865C13.1947 8.36865 13.8852 8.39537 14.5541 8.44646C14.9356 9.01178 15.297 9.5899 15.6383 10.1808C15.9795 10.7718 16.3028 11.3749 16.6081 11.9902C16.3069 12.6102 15.9844 13.2187 15.6406 13.8155C15.2997 14.4093 14.9403 14.9912 14.5625 15.5612C13.8945 15.608 13.2031 15.6338 12.5 15.6338C11.7969 15.6338 11.1186 15.6118 10.4628 15.5691C10.0744 15.0007 9.70781 14.418 9.36312 13.8212C9.01844 13.2243 8.69844 12.6187 8.40313 12.0043H8.40453ZM16.4727 14.2969C16.6992 13.9038 16.9167 13.5055 17.1252 13.1021C17.4109 13.7499 17.6631 14.4121 17.8808 15.0858C17.1877 15.2419 16.4869 15.3616 15.7812 15.4444C16.0194 15.0666 16.2498 14.6841 16.4727 14.2969ZM17.1158 10.8718C16.9083 10.4765 16.6925 10.0858 16.4684 9.6999C16.2497 9.31928 16.0217 8.94334 15.7845 8.57209C16.5022 8.66303 17.1908 8.78396 17.8363 8.93162C17.6287 9.58999 17.3883 10.2375 17.1158 10.8718ZM12.5108 5.83506C12.9789 6.34651 13.4208 6.88125 13.835 7.43724C12.9491 7.39506 12.0625 7.39506 11.1753 7.43724C11.6127 6.85881 12.0603 6.32209 12.5108 5.83506ZM7.32781 3.08724C8.08063 2.65037 9.74516 3.27474 11.4997 4.83427C11.6117 4.93412 11.7247 5.03865 11.8372 5.14693C11.1469 5.89605 10.507 6.69014 9.92188 7.52396C8.91184 7.61497 7.90878 7.77155 6.91906 7.99271C6.86188 7.76271 6.81031 7.53115 6.76437 7.29803C6.34016 5.13099 6.62094 3.4974 7.32781 3.08724ZM6.23047 14.8927C6.04297 14.8393 5.85781 14.7813 5.675 14.7188C4.57812 14.3438 3.67203 13.8544 3.05 13.3215C2.49313 12.8438 2.21094 12.3671 2.21094 11.9808C2.21094 11.1601 3.4325 10.1129 5.46969 9.40271C5.72563 9.31365 5.98375 9.23225 6.24406 9.1585C6.54662 10.1308 6.91304 11.0821 7.34094 12.0062C6.90794 12.943 6.53698 13.9072 6.23047 14.8927ZM11.4397 19.2835C10.5664 20.0485 9.69172 20.5908 8.92062 20.8641C8.22781 21.1093 7.67609 21.1163 7.34281 20.9237C6.63312 20.5135 6.33781 18.9296 6.74047 16.8052C6.78828 16.5552 6.84297 16.3052 6.90453 16.0552C7.90416 16.2706 8.91728 16.4176 9.93688 16.4954C10.5278 17.3335 11.1729 18.1321 11.8681 18.886C11.7284 19.0233 11.5855 19.1555 11.4397 19.2835ZM12.5375 18.1951C12.0819 17.7024 11.6272 17.1572 11.1838 16.5713C11.6147 16.5882 12.0534 16.5966 12.5 16.5966C12.9584 16.5966 13.4122 16.5868 13.8594 16.5666C13.4467 17.1315 13.0055 17.6751 12.5375 18.1951ZM18.3744 19.5352C18.2403 20.259 17.9708 20.7418 17.6375 20.9349C16.9283 21.3465 15.4119 20.8116 13.7769 19.4012C13.5894 19.2399 13.4019 19.0669 13.2111 18.8855C13.8928 18.1287 14.5228 17.3269 15.0969 16.4855C16.1221 16.3987 17.1402 16.2413 18.1437 16.0144C18.1897 16.2001 18.2303 16.3819 18.2656 16.5601C18.4911 17.6991 18.5234 18.7294 18.3744 19.5352ZM19.19 14.724C19.0672 14.7647 18.9406 14.8041 18.8122 14.8426C18.4975 13.8657 18.1168 12.9113 17.6727 11.986C18.1001 11.0731 18.4659 10.1325 18.7677 9.17068C18.9978 9.23771 19.2214 9.30803 19.4366 9.38256C21.5188 10.1007 22.7891 11.1638 22.7891 11.9808C22.7891 12.8527 21.417 13.9843 19.19 14.724Z"
          fill="#00AEFF"/>
    <path d="M12.5 13.9945C12.8989 13.9958 13.2893 13.8787 13.6216 13.658C13.9539 13.4373 14.2133 13.123 14.3669 12.7548C14.5204 12.3866 14.5613 11.9811 14.4843 11.5897C14.4072 11.1983 14.2158 10.8385 13.9341 10.5559C13.6525 10.2734 13.2934 10.0808 12.9022 10.0025C12.511 9.92416 12.1054 9.96369 11.7367 10.1161C11.3681 10.2684 11.0529 10.5268 10.8311 10.8584C10.6093 11.19 10.4909 11.5799 10.4909 11.9789C10.4904 12.2432 10.5419 12.505 10.6426 12.7494C10.7433 12.9937 10.8912 13.2159 11.0777 13.403C11.2643 13.5902 11.486 13.7388 11.73 13.8403C11.9741 13.9418 12.2357 13.9942 12.5 13.9945Z"
          fill="#00AEFF"/>
</svg>
