<svg width="21" height="21" viewBox="0 0 21 21" fill="none" xmlns="http://www.w3.org/2000/svg">
    <path d="M20.9577 15.7225V18.8839C20.9589 19.1774 20.8988 19.4679 20.7812 19.7368C20.6637 20.0057 20.4912 20.247 20.275 20.4454C20.0587 20.6438 19.8034 20.7949 19.5254 20.8889C19.2474 20.9829 18.9528 21.0179 18.6605 20.9914C15.4178 20.6391 12.303 19.5311 9.56636 17.7563C7.02024 16.1384 4.86158 13.9798 3.24367 11.4336C1.46275 8.68454 0.35445 5.55458 0.00855324 2.29735C-0.0177803 2.00594 0.0168517 1.71225 0.110244 1.43496C0.203636 1.15767 0.353742 0.902866 0.551005 0.686769C0.748268 0.470672 0.988365 0.298016 1.25601 0.179795C1.52366 0.0615741 1.81299 0.000377709 2.10558 0.000102167H5.26693C5.77834 -0.00493117 6.27412 0.176167 6.66188 0.50964C7.04964 0.843114 7.30292 1.30621 7.37449 1.81261C7.50793 2.82431 7.75538 3.81767 8.11214 4.77374C8.25392 5.15091 8.28461 5.56082 8.20056 5.9549C8.11651 6.34898 7.92126 6.71071 7.63794 6.99722L6.29963 8.33552C7.79975 10.9737 9.98414 13.1581 12.6223 14.6582L13.9606 13.3199C14.2471 13.0366 14.6089 12.8413 15.0029 12.7573C15.397 12.6732 15.8069 12.7039 16.1841 12.8457C17.1402 13.2025 18.1335 13.4499 19.1452 13.5834C19.6571 13.6556 20.1246 13.9134 20.4588 14.3078C20.793 14.7022 20.9706 15.2057 20.9577 15.7225Z"
          fill="#FFE240"/>
</svg>
